<svg xmlns="http://www.w3.org/2000/svg" xmlns:xlink="http://www.w3.org/1999/xlink" width="204" height="58" viewBox="0 0 204 58">
  <defs>
    <filter id="TAGCIRCLE" x="46" y="2" width="158" height="54" filterUnits="userSpaceOnUse">
      <feOffset dy="3" input="SourceAlpha"/>
      <feGaussianBlur stdDeviation="3" result="blur"/>
      <feFlood flood-opacity="0.161"/>
      <feComposite operator="in" in2="blur"/>
      <feComposite in="SourceGraphic"/>
    </filter>
    <filter id="Subtraction_22" x="0" y="0" width="58" height="58" filterUnits="userSpaceOnUse">
      <feOffset dy="3" input="SourceAlpha"/>
      <feGaussianBlur stdDeviation="3" result="blur-2"/>
      <feFlood flood-opacity="0.161"/>
      <feComposite operator="in" in2="blur-2"/>
      <feComposite in="SourceGraphic"/>
    </filter>
  </defs>
  <g id="Group_9603" data-name="Group 9603" transform="translate(-1028.229 -99.977)">
    <g id="Group_9604" data-name="Group 9604" transform="translate(1083.629 107.524)">
      <g transform="matrix(1, 0, 0, 1, -55.4, -7.55)" filter="url(#TAGCIRCLE)">
        <text id="TAGCIRCLE-2" data-name="TAGCIRCLE" transform="translate(55 36)" fill="#fff" font-size="26" font-family="OpenSans-Bold, Open Sans" font-weight="700"><tspan x="0" y="0">TAGCIRCLE</tspan></text>
      </g>
    </g>
    <g id="Group_9603-2" data-name="Group 9603" transform="translate(1037.229 105.977)">
      <g transform="matrix(1, 0, 0, 1, -9, -6)" filter="url(#Subtraction_22)">
        <path id="Subtraction_22-2" data-name="Subtraction 22" d="M20,40A20.005,20.005,0,0,1,12.215,1.572a20.005,20.005,0,0,1,15.57,36.857A19.875,19.875,0,0,1,20,40ZM15.479,27.935h0l1.015,5.507,3.591-1.524-1-5.477L23,24.82l1,5.438,3.591-1.524L26.6,23.327l4.039-1.674-1.014-3.581-3.713,1.494-.783-4.282,3.669-1.52-1.014-3.581-3.342,1.345-.913-4.992L19.91,8.074l.906,4.915-3.906,1.572-.885-4.839L12.4,11.261l.878,4.762L9.144,17.689l1.032,3.793L14,19.9l.767,4.157-3.779,1.522,1.033,3.793,3.461-1.435Zm2.9-5.336h0l-.768-4.2,3.9-1.617.782,4.24L18.382,22.6Z" transform="translate(9 6)" fill="#fff"/>
      </g>
    </g>
  </g>
</svg>
